HIERARCHY
ROOT hips
{
  OFFSET 0 10.6860622 2.3727825e-15
  CHANNELS 6 Xposition Yposition Zposition Yrotation Xrotation Zrotation
  JOINT leftUpperLeg
  {
    OFFSET 0.6642549969 -0.9402397400000004 0
    CHANNELS 3 Yrotation Xrotation Zrotation
    JOINT leftLowerLeg
    {
      OFFSET 0 -3.997221335632195 0
      CHANNELS 3 Yrotation Xrotation Zrotation
      JOINT leftFoot
      {
        OFFSET -0.13777839790000004 -4.6145792000000005 -0.22186036399999998
        CHANNELS 3 Yrotation Xrotation Zrotation
        JOINT leftToes
        {
          OFFSET -0.03777410834999995 -0.9130806927000008 0.85230013
          CHANNELS 3 Yrotation Xrotation Zrotation
          End Site
          {
            OFFSET -0.03777410834999995 -0.9130806927000008 0.85230013
          }
        }
      }
    }
  }
  JOINT rightUpperLeg
  {
    OFFSET -0.6642778626 -0.9402397400000004 0
    CHANNELS 3 Yrotation Xrotation Zrotation
    JOINT rightLowerLeg
    {
      OFFSET 0 -3.997221452859387 0
      CHANNELS 3 Yrotation Xrotation Zrotation
      JOINT rightFoot
      {
        OFFSET 0.1377926176 -4.6145792000000005 -0.22185782299999995
        CHANNELS 3 Yrotation Xrotation Zrotation
        JOINT rightToes
        {
          OFFSET 0.037780746850000047 -0.9130806927000008 0.85230167
          CHANNELS 3 Yrotation Xrotation Zrotation
          End Site
          {
            OFFSET 0.037780746850000047 -0.9130806927000008 0.85230167
          }
        }
      }
    }
  }
  JOINT spine
  {
    OFFSET 0 0.13988381660000015 0
    CHANNELS 3 Yrotation Xrotation Zrotation
    JOINT chest
    {
      OFFSET 0 0.6191039003973773 0
      CHANNELS 3 Yrotation Xrotation Zrotation
      JOINT upperChest
      {
        OFFSET 0 0.9855186130586943 0
        CHANNELS 3 Yrotation Xrotation Zrotation
        JOINT leftShoulder
        {
          OFFSET 0.1807663869 1.5087829790000005 0
          CHANNELS 3 Yrotation Xrotation Zrotation
          JOINT leftUpperArm
          {
            OFFSET 0.5985063006419806 0 0
            CHANNELS 3 Yrotation Xrotation Zrotation
            JOINT leftLowerArm
            {
              OFFSET 2.2993332369501065 0 0
              CHANNELS 3 Yrotation Xrotation Zrotation
              JOINT leftHand
              {
                OFFSET 2.395047042602395 0 0
                CHANNELS 3 Yrotation Xrotation Zrotation
                JOINT leftIndexProximal
                {
                  OFFSET 0.5766295810000004 0.04556643899499946 0.17265095988184
                  CHANNELS 3 Yrotation Xrotation Zrotation
                  JOINT leftIndexIntermediate
                  {
                    OFFSET 0.2957229000000008 -0.019352197700001517 -0.007932640616999987
                    CHANNELS 3 Yrotation Xrotation Zrotation
                    JOINT leftIndexDistal
                    {
                      OFFSET 0.19008243099999922 -0.012484908149998475 -0.002786250786000012
                      CHANNELS 3 Yrotation Xrotation Zrotation
                      End Site
                      {
                        OFFSET 0.19008243099999922 -0.012484908149998475 -0.002786250786000012
                      }
                    }
                  }
                }
                JOINT leftMiddleProximal
                {
                  OFFSET 0.5834975091000001 0.0524350405149987 0.02204081888183999
                  CHANNELS 3 Yrotation Xrotation Zrotation
                  JOINT leftMiddleIntermediate
                  {
                    OFFSET 0.33880573540000003 -0.019871473270000717 -0.00000971183179999946
                    CHANNELS 3 Yrotation Xrotation Zrotation
                    JOINT leftMiddleDistal
                    {
                      OFFSET 0.20676022730000088 -0.012221336379999448 0.0001471936708000235
                      CHANNELS 3 Yrotation Xrotation Zrotation
                      End Site
                      {
                        OFFSET 0.20676022730000088 -0.012221336379999448 0.0001471936708000235
                      }
                    }
                  }
                }
                JOINT leftLittleProximal
                {
                  OFFSET 0.5344154683999995 -0.012880921405001189 -0.24414037221816004
                  CHANNELS 3 Yrotation Xrotation Zrotation
                  JOINT leftLittleIntermediate
                  {
                    OFFSET 0.21758961730000093 -0.011650919939999227 0.011893592810000034
                    CHANNELS 3 Yrotation Xrotation Zrotation
                    JOINT leftLittleDistal
                    {
                      OFFSET 0.1475273964999999 -0.008152365682999818 0.006001092492999946
                      CHANNELS 3 Yrotation Xrotation Zrotation
                      End Site
                      {
                        OFFSET 0.1475273964999999 -0.008152365682999818 0.006001092492999946
                      }
                    }
                  }
                }
                JOINT leftRingProximal
                {
                  OFFSET 0.5799399463000003 0.026911854694997794 -0.12150566991816003
                  CHANNELS 3 Yrotation Xrotation Zrotation
                  JOINT leftRingIntermediate
                  {
                    OFFSET 0.26167887460000006 -0.013480186499999602 0.010996293000000053
                    CHANNELS 3 Yrotation Xrotation Zrotation
                    JOINT leftRingDistal
                    {
                      OFFSET 0.17667108799999987 -0.008990287899999228 0.0055541023999999065
                      CHANNELS 3 Yrotation Xrotation Zrotation
                      End Site
                      {
                        OFFSET 0.17667108799999987 -0.008990287899999228 0.0055541023999999065
                      }
                    }
                  }
                }
                JOINT leftThumbProximal
                {
                  OFFSET 0.11018806699999972 -0.09448718900500053 0.17047963138184
                  CHANNELS 3 Yrotation Xrotation Zrotation
                  JOINT leftThumbIntermediate
                  {
                    OFFSET 0.31062601459999983 -0.08126270900000132 0.15443142000000007
                    CHANNELS 3 Yrotation Xrotation Zrotation
                    JOINT leftThumbDistal
                    {
                      OFFSET 0.21627175790000086 -0.08833193599999878 0.018771167799999988
                      CHANNELS 3 Yrotation Xrotation Zrotation
                      End Site
                      {
                        OFFSET 0.21627175790000086 -0.08833193599999878 0.018771167799999988
                      }
                    }
                  }
                }
              }
            }
          }
        }
        JOINT neck
        {
          OFFSET 0 1.5463305265074576 0
          CHANNELS 3 Yrotation Xrotation Zrotation
          JOINT head
          {
            OFFSET 0 0.8456443600000344 0
            CHANNELS 3 Yrotation Xrotation Zrotation
            JOINT leftEye
            {
              OFFSET 0.30408573140000006 0.5104519199999995 0.1276382305
              CHANNELS 3 Yrotation Xrotation Zrotation
              End Site
              {
                OFFSET 0.30408573140000006 0.5104519199999995 0.1276382305
              }
            }
            JOINT rightEye
            {
              OFFSET -0.30409491089999996 0.5104519199999995 0.1276379445
              CHANNELS 3 Yrotation Xrotation Zrotation
              End Site
              {
                OFFSET -0.30409491089999996 0.5104519199999995 0.1276379445
              }
            }
            JOINT jaw
            {
              OFFSET -3.155239131000001e-7 -0.11984121820000082 0.60178107
              CHANNELS 3 Yrotation Xrotation Zrotation
              End Site
              {
                OFFSET -3.155239131000001e-7 -0.11984121820000082 0.60178107
              }
            }
          }
        }
        JOINT rightShoulder
        {
          OFFSET -0.1807303465 1.5087829790000005 0
          CHANNELS 3 Yrotation Xrotation Zrotation
          JOINT rightUpperArm
          {
            OFFSET -0.5985063796536958 0 0
            CHANNELS 3 Yrotation Xrotation Zrotation
            JOINT rightLowerArm
            {
              OFFSET -2.2993322059002854 0 0
              CHANNELS 3 Yrotation Xrotation Zrotation
              JOINT rightHand
              {
                OFFSET -2.395045314457259 0 0
                CHANNELS 3 Yrotation Xrotation Zrotation
                JOINT rightIndexProximal
                {
                  OFFSET -0.5764487688300002 0.0441371204405987 0.17361932004999997
                  CHANNELS 3 Yrotation Xrotation Zrotation
                  JOINT rightIndexIntermediate
                  {
                    OFFSET -0.29573011380000047 -0.01934826376999843 -0.007698921482999974
                    CHANNELS 3 Yrotation Xrotation Zrotation
                    JOINT rightIndexDistal
                    {
                      OFFSET -0.19008373999999884 -0.012503266380000655 -0.0026365778999999897
                      CHANNELS 3 Yrotation Xrotation Zrotation
                      End Site
                      {
                        OFFSET -0.19008373999999884 -0.012503266380000655 -0.0026365778999999897
                      }
                    }
                  }
                }
                JOINT rightMiddleProximal
                {
                  OFFSET -0.5834852037300005 0.05211639405060153 0.02307162440000001
                  CHANNELS 3 Yrotation Xrotation Zrotation
                  JOINT rightMiddleIntermediate
                  {
                    OFFSET -0.33880114510000003 -0.019952774050000954 0.0002455003561999819
                    CHANNELS 3 Yrotation Xrotation Zrotation
                    JOINT rightMiddleDistal
                    {
                      OFFSET -0.20675694929999955 -0.012273788999999091 0.00030209124000002766
                      CHANNELS 3 Yrotation Xrotation Zrotation
                      End Site
                      {
                        OFFSET -0.20675694929999955 -0.012273788999999091 0.00030209124000002766
                      }
                    }
                  }
                }
                JOINT rightLittleProximal
                {
                  OFFSET -0.5346811737299992 -0.011214256288399227 -0.24363941305000003
                  CHANNELS 3 Yrotation Xrotation Zrotation
                  JOINT rightLittleIntermediate
                  {
                    OFFSET -0.21757715980000092 -0.011771559690000988 0.01201554387
                    CHANNELS 3 Yrotation Xrotation Zrotation
                    JOINT rightLittleDistal
                    {
                      OFFSET -0.1475201849000004 -0.00822055339600003 0.006082065407000015
                      CHANNELS 3 Yrotation Xrotation Zrotation
                      End Site
                      {
                        OFFSET -0.1475201849000004 -0.00822055339600003 0.006082065407000015
                      }
                    }
                  }
                }
                JOINT rightRingProximal
                {
                  OFFSET -0.5800810755299999 0.027657985680600072 -0.12066365025000003
                  CHANNELS 3 Yrotation Xrotation Zrotation
                  JOINT rightRingIntermediate
                  {
                    OFFSET -0.26166445029999974 -0.013623118409999302 0.011164098990000045
                    CHANNELS 3 Yrotation Xrotation Zrotation
                    JOINT rightRingDistal
                    {
                      OFFSET -0.17666387530000027 -0.009072900100000503 0.005668185599999959
                      CHANNELS 3 Yrotation Xrotation Zrotation
                      End Site
                      {
                        OFFSET -0.17666387530000027 -0.009072900100000503 0.005668185599999959
                      }
                    }
                  }
                }
                JOINT rightThumbProximal
                {
                  OFFSET -0.10997596379000074 -0.09577489355940072 0.16989765924999997
                  CHANNELS 3 Yrotation Xrotation Zrotation
                  JOINT rightThumbIntermediate
                  {
                    OFFSET -0.31036620999999986 -0.08229339117999834 0.15440884469999996
                    CHANNELS 3 Yrotation Xrotation Zrotation
                    JOINT rightThumbDistal
                    {
                      OFFSET -0.21631306399999906 -0.08825326400000111 0.018656797720000014
                      CHANNELS 3 Yrotation Xrotation Zrotation
                      End Site
                      {
                        OFFSET -0.21631306399999906 -0.08825326400000111 0.018656797720000014
                      }
                    }
                  }
                }
              }
            }
          }
        }
      }
    }
  }
}
MOTION
Frames: 6
Frame Time: 0.03333333333333333
0 -10.610138021295173 -7.516013686107422 0 -90 0 0.06097096945239945 -2.7211647000034596 13.305962842506592 0.7882543453906309 8.561101229579123 4.494626748193002 2.3959397165843432 13.60013783127389 6.052984300663472 0 0 0 -0.17382498417807588 -2.3014423264896884 -13.155310151271786 -0.7854734693561384 8.421839555776078 -4.485311889392605 -2.3999415304151075 13.59987870232295 -6.0569886142113925 0 0 0 0 15.72758454684906 0 -1.1360097845229147 50.32364475481328 -1.0385448447715637 0 0 0 2.2499575990928213 -10.506008705233674 7.395558173913198 14.519513753090086 -0.6007572012562298 -76.10697783825006 -92.91384688130692 -18.86663518856721 -6.398024885356003 9.549976018410243 20.43619070670706 -20.438146700541566 0 0 0 0 0 0 0 0 0 0 0 0 0 0 0 0 0 0 0 0 0 0 0 0 0 0 0 0 0 0 0 0 0 0 0 0 0 0 0 0 0 0 0 0 0 0.00828375472207096 29.706775916615275 12.548302226171591 -4.4504978382299845 -4.603237096263716 17.808657264874494 0 0 0 0 0 0 0 0 0 -3.0834168535524418 -10.733905948188571 -7.160884544917243 -6.611987720895941 30.05094618742897 77.48179821388129 78.21760972746253 33.9013900317852 3.4632184496813023 2.5701927941477103 21.410402307215925 4.6926747087408165 0 0 0 0 0 0 0 0 0 0 0 0 0 0 0 0 0 0 0 0 0 0 0 0 0 0 0 0 0 0 0 0 0 0 0 0 0 0 0 0 0 0 0 0 0
0 -10.610138021295173 -7.516013686107422 0 -90 0 0.06334674906630779 -2.7109867431283985 13.30983426739731 0.7890889488066035 8.58113940222726 4.500617757424449 2.3959397165843432 13.60013783127389 6.052984300663472 0 0 0 -0.17308410666266283 -2.3047324395658477 -13.153262036776217 -0.7850173913814495 8.4106352054456 -4.48179746031635 -2.3999415304151075 13.59987870232295 -6.0569886142113925 0 0 0 0 15.696196708368275 0 -1.1360097845229147 50.32364475481328 -1.0385448447715637 0 0 0 2.2499575990928213 -10.506008705233674 7.395558173913198 14.519513753090086 -0.6007572012562298 -76.10697783825006 -92.91384688130692 -18.86663518856721 -6.398024885356003 9.549976916901235 20.43619070670706 -20.438146700541566 0 0 0 0 0 0 0 0 0 0 0 0 0 0 0 0 0 0 0 0 0 0 0 0 0 0 0 0 0 0 0 0 0 0 0 0 0 0 0 0 0 0 0 0 0 0.007933584623416541 29.740859008216123 12.525409626651783 -4.500704691455339 -4.477813840739066 18.080396378925244 0 0 0 0 0 0 0 0 0 -3.0834168535524418 -10.733905948188571 -7.160884544917243 -6.6098769591522535 30.055373068455594 77.50484305477961 78.21757498385163 33.901398260941534 3.4632169013931913 2.568051670457149 21.390457604444904 4.664106110382288 0 0 0 0 0 0 0 0 0 0 0 0 0 0 0 0 0 0 0 0 0 0 0 0 0 0 0 0 0 0 0 0 0 0 0 0 0 0 0 0 0 0 0 0 0
0 -10.610138021295173 -7.516013686107422 0 -90 0 0.06572320326276346 -2.700809085543997 13.313706414229951 0.7899257860603758 8.60117776894587 4.506609510739228 2.3959397165843432 13.60013783127389 6.052984300663472 0 0 0 -0.1723433458893402 -2.3080227738625383 -13.151214690544762 -0.7845620342810266 8.399430316035591 -4.478282804285654 -2.3999415304151075 13.59987870232295 -6.0569886142113925 0 0 0 0 15.66481015435527 0 -1.1360097845229147 50.32364475481328 -1.0385448447715637 0 0 0 2.2499575990928213 -10.506006968572638 7.395558173913198 14.519513753090086 -0.6007572012562298 -76.10697783825006 -92.91384688130692 -18.86663518856721 -6.398024885356003 9.549977815392221 20.43619070670706 -20.438146700541566 0 0 0 0 0 0 0 0 0 0 0 0 0 0 0 0 0 0 0 0 0 0 0 0 0 0 0 0 0 0 0 0 0 0 0 0 0 0 0 0 0 0 0 0 0 0.007567606348659133 29.774943851137877 12.502509354797303 -4.55030601448022 -4.352154781796261 18.3519801531014 0 0 0 0 0 0 0 0 0 -3.083417070482529 -10.733905079210198 -7.160884544917243 -6.607764538916834 30.059800147407206 77.52788824837786 78.21753923326317 33.90140237552 3.4632153531048515 2.5659217629727613 21.370511953568215 4.63554176771488 0 0 0 0 0 0 0 0 0 0 0 0 0 0 0 0 0 0 0 0 0 0 0 0 0 0 0 0 0 0 0 0 0 0 0 0 0 0 0 0 0 0 0 0 0
0 -10.610138021295173 -7.516013686107422 0 -90 0 0.06810056979128735 -2.6906315132425993 13.31757683263384 0.7907646419451022 8.621216332216905 4.512601851633296 2.3959397165843432 13.60013783127389 6.052984300663472 0 0 0 -0.17160243483887974 -2.3113131157749476 -13.14916489305553 -0.7841071349388118 8.388227476181665 -4.4747693203697985 -2.3999415304151075 13.59987870232295 -6.0569886142113925 0 0 0 0 15.633426647945024 0 -1.1360097845229147 50.32364475481328 -1.0385448447715637 0 0 0 2.2499575990928213 -10.506006968572638 7.395558173913198 14.519513753090086 -0.6007572012562298 -76.10697783825006 -92.91384688130692 -18.86663518856721 -6.398024885356003 9.549977815392221 20.43619070670706 -20.4381484080671 0 0 0 0 0 0 0 0 0 0 0 0 0 0 0 0 0 0 0 0 0 0 0 0 0 0 0 0 0 0 0 0 0 0 0 0 0 0 0 0 0 0 0 0 0 0.007186444695958002 29.809026523377685 12.479600307432408 -4.599272375728815 -4.2263381962704045 18.623242497010693 0 0 0 0 0 0 0 0 0 -3.0834168535524418 -10.733905948188571 -7.160884544917243 -6.605647974049885 30.064227424336792 77.55093198262783 78.21751053146566 33.90141883383584 3.4632158502094783 2.563801921640103 21.350567185927833 4.606981046043606 0 0 0 0 0 0 0 0 0 0 0 0 0 0 0 0 0 0 0 0 0 0 0 0 0 0 0 0 0 0 0 0 0 0 0 0 0 0 0 0 0 0 0 0 0
0 -10.610138021295173 -7.516013686107422 0 -90 0 0.070478604454158 -2.6804540259009366 13.321448805576964 0.7916055772967209 8.641254230946283 4.518594239053012 2.3959397165843432 13.60013783127389 6.052984300663472 0 0 0 -0.17086163737279744 -2.3146034653139793 -13.147115086165975 -0.7836529562519933 8.377024959316282 -4.471255339554185 -2.3999415304151075 13.59987870232295 -6.0569886142113925 0 0 0 0 15.602042632576572 0 -1.1360097845229147 50.32364475481328 -1.0385448447715637 0 0 0 2.2499575990928213 -10.506008705233674 7.395558173913198 14.519513753090086 -0.6007572012562298 -76.10697783825006 -92.91384688130692 -18.86663518856721 -6.398024885356003 9.549976916901235 20.43619070670706 -20.438149680702182 0 0 0 0 0 0 0 0 0 0 0 0 0 0 0 0 0 0 0 0 0 0 0 0 0 0 0 0 0 0 0 0 0 0 0 0 0 0 0 0 0 0 0 0 0 0.006789442142732806 29.84310900338392 12.4566843682867 -4.647632830271684 -4.100291654402449 18.89435576194537 0 0 0 0 0 0 0 0 0 -3.0834168535524418 -10.733905948188571 -7.160884544917243 -6.6035288058873975 30.068654899297353 77.5739761904211 78.21748098947509 33.90143117757481 3.4632163473142477 2.5616932861430217 21.330623298746772 4.578425751845983 0 0 0 0 0 0 0 0 0 0 0 0 0 0 0 0 0 0 0 0 0 0 0 0 0 0 0 0 0 0 0 0 0 0 0 0 0 0 0 0 0 0 0 0 0
0 -10.610138021295173 -7.516013686107422 0 -90 0 0.07285709122109515 -2.670277050546611 13.325323165310303 0.7924491199205554 8.661293194724225 4.524587219004462 2.3959397165843432 13.60013783127389 6.052984300663472 0 0 0 -0.17012114668026385 -2.317894676963303 -13.145071039668853 -0.7831992823575984 8.365818450202784 -4.467742099370685 -2.3999415304151075 13.59987870232295 -6.0569886142113925 0 0 0 0 15.570656326468029 0 -1.1360097845229147 50.32364475481328 -1.0385448447715637 0 0 0 2.2499575990928213 -10.506008705233674 7.395558173913198 14.519513753090086 -0.6007572012562298 -76.10697783825006 -92.91384688130692 -18.86663518856721 -6.398024885356003 9.549976916901235 20.43619070670706 -20.438149680702182 0 0 0 0 0 0 0 0 0 0 0 0 0 0 0 0 0 0 0 0 0 0 0 0 0 0 0 0 0 0 0 0 0 0 0 0 0 0 0 0 0 0 0 0 0 0.006376082972007054 29.877195241572743 12.433761501236296 -4.6953567841420245 -3.9741023794805144 19.16514418035637 0 0 0 0 0 0 0 0 0 -3.0834168535524418 -10.733905948188571 -7.160884544917243 -6.601406471787388 30.073082572341896 77.59703124579201 78.21744523886417 33.901439406735115 3.4632145341943668 2.5595963089191045 21.3106784563772 4.549875407043329 0 0 0 0 0 0 0 0 0 0 0 0 0 0 0 0 0 0 0 0 0 0 0 0 0 0 0 0 0 0 0 0 0 0 0 0 0 0 0 0 0 0 0 0 0
